<?xml version="1.0" standalone="no"?>
<!DOCTYPE svg PUBLIC "-//W3C//DTD SVG 20010904//EN"
 "http://www.w3.org/TR/2001/REC-SVG-20010904/DTD/svg10.dtd">
<svg version="1.0" xmlns="http://www.w3.org/2000/svg"
 viewBox="0 0 2096.000000 1362.000000"
 preserveAspectRatio="xMidYMid meet">

<g transform="translate(0.000000,1362.000000) scale(0.100000,-0.100000)"
fill="#ffc300" stroke="none">
<path d="M3245 13409 c-267 -28 -501 -114 -735 -270 -375 -250 -646 -622 -749
-1027 -46 -180 -62 -444 -106 -1767 -48 -1431 -73 -1984 -96 -2111 -62 -349
-257 -630 -739 -1067 -190 -172 -329 -307 -341 -330 -12 -22 17 -73 64 -113
18 -15 133 -119 255 -232 426 -390 590 -603 707 -916 47 -127 61 -204 74 -401
20 -298 54 -1189 96 -2455 31 -962 45 -1100 134 -1349 199 -556 682 -983 1258
-1111 93 -21 379 -47 390 -36 14 14 -19 26 -172 61 -88 21 -198 51 -245 67
-196 69 -396 197 -573 368 -234 225 -363 419 -436 655 -81 263 -81 284 -25
2370 32 1201 34 1524 11 1660 -45 259 -130 507 -245 710 -140 247 -302 423
-562 611 -66 48 -122 90 -125 94 -2 3 38 30 89 59 392 222 729 725 821 1224
49 268 47 644 -10 2592 -21 684 -23 1231 -7 1347 71 503 471 1002 964 1203 48
20 177 58 285 85 109 28 209 55 223 61 24 11 24 12 5 20 -25 10 -105 9 -210
-2z"/>
<path d="M17477 13411 c-17 -6 -16 -8 7 -19 14 -6 107 -32 208 -58 193 -49
279 -79 406 -143 171 -86 364 -236 482 -374 146 -170 271 -399 335 -611 61
-205 63 -304 30 -1546 -56 -2067 -56 -2331 1 -2608 43 -209 196 -557 317 -721
63 -87 253 -276 348 -350 48 -36 121 -85 164 -109 60 -34 74 -46 65 -57 -6 -7
-71 -57 -146 -111 -200 -145 -378 -336 -507 -544 -110 -179 -221 -451 -246
-605 -34 -208 -41 -1002 -16 -1865 49 -1731 51 -1913 19 -2139 -19 -130 -49
-222 -125 -376 -77 -158 -132 -229 -318 -415 -273 -271 -427 -360 -791 -455
-91 -24 -181 -50 -200 -58 l-35 -14 49 -8 c106 -17 379 35 581 110 335 124
645 376 833 675 55 89 175 338 205 430 80 238 87 343 147 2220 32 1016 51
1405 80 1660 19 162 50 270 116 402 94 187 164 291 290 427 58 62 414 397 585
549 26 23 62 61 80 83 l32 40 -49 51 c-27 27 -152 146 -279 263 -377 348 -526
518 -639 727 -152 281 -158 347 -221 2293 -49 1533 -66 1774 -140 2028 -127
438 -492 864 -920 1073 -166 81 -303 119 -538 149 -127 16 -181 18 -210 6z"/>
<path d="M5522 12499 c-138 -18 -332 -78 -463 -144 -93 -47 -240 -150 -337
-236 -104 -92 -181 -183 -285 -338 -192 -286 -206 -376 -252 -1631 -39 -1066
-69 -1735 -86 -1949 -34 -424 -202 -682 -766 -1184 -112 -98 -203 -183 -203
-187 0 -5 91 -89 203 -188 244 -217 450 -426 536 -547 70 -99 147 -252 180
-357 11 -37 27 -118 35 -180 32 -238 41 -414 81 -1563 55 -1593 69 -1735 198
-1991 125 -249 417 -555 639 -670 182 -94 470 -174 637 -177 135 -3 122 20
-29 53 -52 12 -152 39 -221 61 -319 102 -662 387 -804 669 -102 202 -130 314
-146 580 -10 172 -6 336 31 1525 22 685 26 1315 9 1512 -17 211 -81 425 -185
623 -121 229 -254 386 -449 530 -71 53 -136 104 -142 112 -11 13 2 25 90 81
168 108 280 222 410 415 106 158 220 408 252 552 33 149 32 859 -6 2772 -13
640 -10 698 46 864 68 205 165 364 314 517 182 188 400 314 673 392 200 57
258 76 253 85 -7 12 -123 11 -213 -1z"/>
<path d="M15205 12500 c-9 -15 47 -37 180 -69 149 -37 233 -68 356 -133 255
-133 472 -354 603 -614 96 -191 112 -259 127 -529 10 -181 8 -344 -15 -1170
-38 -1408 -42 -1719 -22 -1887 32 -269 114 -518 239 -718 126 -201 336 -413
500 -504 37 -21 65 -42 62 -46 -3 -5 -56 -44 -118 -88 -389 -274 -636 -712
-689 -1220 -14 -139 -5 -687 27 -1662 28 -856 32 -1351 10 -1510 -39 -289
-140 -485 -375 -721 -227 -229 -395 -321 -750 -410 -85 -22 -158 -43 -163 -48
-16 -16 77 -22 178 -11 188 19 376 79 546 175 144 80 233 149 368 283 176 176
277 336 351 561 77 233 89 393 140 1963 39 1188 49 1351 100 1551 33 131 120
311 215 442 48 67 211 230 506 506 108 101 195 188 195 194 -1 5 -62 63 -136
129 -173 153 -513 493 -574 574 -118 156 -205 342 -229 492 -24 146 -48 621
-82 1650 -45 1338 -60 1559 -120 1755 -75 243 -189 429 -380 620 -244 245
-509 384 -839 440 -101 17 -202 20 -211 5z"/>
<path d="M7805 12309 c-3 -13 -50 -312 -105 -664 -146 -931 -180 -1126 -263
-1525 -19 -91 -38 -187 -41 -215 -6 -50 -6 -50 11 -26 27 37 54 109 164 431
111 325 271 832 400 1266 l83 282 496 6 c926 12 1685 26 1713 32 74 17 20 31
-425 109 -1104 192 -1816 310 -1945 321 -81 6 -82 6 -88 -17z"/>
<path d="M14130 12258 c-30 -5 -275 -45 -545 -89 -526 -86 -1402 -239 -1500
-262 -50 -12 -56 -16 -35 -21 14 -3 227 -10 473 -15 246 -5 450 -11 453 -14 3
-3 -2 -19 -10 -35 -36 -69 -464 -731 -921 -1422 -309 -467 -485 -745 -475
-748 26 -9 368 178 915 498 481 281 988 591 1001 611 12 21 -3 17 -780 -185
-98 -26 -184 -45 -190 -42 -6 2 323 337 731 743 732 729 931 932 953 972 12
24 14 24 -70 9z"/>
<path d="M8248 11627 c-47 -117 -1119 -3821 -1202 -4152 -14 -55 -28 -125 -31
-156 l-7 -56 109 -31 c149 -43 311 -83 879 -216 977 -229 1535 -378 1559 -416
6 -10 -63 -300 -416 -1735 -165 -671 -341 -1384 -390 -1585 -119 -485 -189
-791 -189 -826 1 -29 1 -29 47 21 125 136 819 993 1882 2324 410 514 1083
1353 1495 1865 821 1019 1276 1589 1343 1680 24 33 40 63 36 67 -24 24 -610
165 -1923 464 -410 93 -546 127 -572 142 -23 13 206 374 1005 1583 409 618
592 899 640 981 l27 46 -292 7 c-301 6 -1944 22 -3248 30 l-735 5 -17 -42z"/>
<path d="M12980 8926 c0 -8 151 -92 455 -251 176 -92 324 -172 329 -176 6 -5
-11 -35 -39 -71 -75 -97 -659 -821 -1155 -1433 -1063 -1311 -1620 -2015 -1620
-2047 0 -5 9 -3 20 5 77 54 758 628 1205 1016 99 86 245 212 324 280 79 69
182 162 230 207 l86 83 -94 -6 c-109 -7 -109 -8 -24 88 158 179 700 749 713
749 13 0 -5 -66 -90 -329 -101 -317 -151 -483 -147 -488 6 -6 165 198 474 607
518 688 1030 1387 1022 1394 -27 23 -198 69 -644 171 -532 123 -934 205 -1002
205 -24 0 -43 -2 -43 -4z"/>
<path d="M7043 8598 c-30 -33 -594 -1037 -852 -1517 -55 -102 -69 -136 -59
-142 32 -21 332 -112 933 -284 1300 -373 1597 -463 1640 -497 l25 -20 -18 -31
c-173 -291 -316 -526 -677 -1118 -456 -745 -581 -956 -573 -965 3 -2 216 201
474 452 258 251 470 452 471 447 2 -4 -57 -246 -131 -537 l-134 -529 -158
-158 -158 -158 17 -453 c38 -970 75 -1629 92 -1646 5 -5 28 49 64 156 45 131
252 936 656 2547 341 1361 536 2153 550 2236 7 35 6 36 -42 57 -96 41 -343
108 -1268 342 -538 136 -922 239 -1217 326 -13 4 -16 12 -11 37 20 112 260
984 359 1310 25 81 44 152 42 158 -2 6 -13 0 -25 -13z"/>
</g>
</svg>
